<svg width="500" height="400" viewBox="0 0 500 400" fill="none" xmlns="http://www.w3.org/2000/svg">
    <!-- Background -->
    <rect width="500" height="400" fill="#F3F4F6" rx="12"/>

    <!-- Dashboard Elements -->
    <!-- Header -->
    <rect x="40" y="30" width="420" height="60" fill="white" rx="8"/>
    <rect x="60" y="45" width="120" height="30" fill="#2563eb" rx="4"/>
    <rect x="200" y="45" width="80" height="30" fill="#E5E7EB" rx="4"/>
    <rect x="300" y="45" width="80" height="30" fill="#E5E7EB" rx="4"/>

    <!-- Main Content -->
    <!-- Left Panel -->
    <rect x="40" y="110" width="200" height="260" fill="white" rx="8"/>
    <rect x="60" y="130" width="160" height="20" fill="#E5E7EB" rx="4"/>
    <rect x="60" y="160" width="160" height="80" fill="#2563eb" rx="4"/>
    <rect x="60" y="250" width="160" height="20" fill="#E5E7EB" rx="4"/>
    <rect x="60" y="280" width="160" height="70" fill="#2563eb" opacity="0.7" rx="4"/>

    <!-- Right Panel -->
    <rect x="260" y="110" width="200" height="260" fill="white" rx="8"/>
    <rect x="280" y="130" width="160" height="20" fill="#E5E7EB" rx="4"/>

    <!-- Graph -->
    <path d="M280 250L320 200L360 220L400 180" stroke="#2563eb" stroke-width="3" stroke-linecap="round"/>
    <circle cx="320" cy="200" r="4" fill="#2563eb"/>
    <circle cx="360" cy="220" r="4" fill="#2563eb"/>
    <circle cx="400" cy="180" r="4" fill="#2563eb"/>

    <!-- Data Points -->
    <rect x="280" y="280" width="160" height="15" fill="#E5E7EB" rx="2"/>
    <rect x="280" y="305" width="120" height="15" fill="#E5E7EB" rx="2"/>
    <rect x="280" y="330" width="140" height="15" fill="#E5E7EB" rx="2"/>
</svg>